<svg width="721" height="240" viewBox="0 0 721 240" fill="none" xmlns="http://www.w3.org/2000/svg">
<rect width="720.648" height="239.33" fill="white"/>
<mask id="path-2-inside-1_8322_7951" fill="white">
<path fill-rule="evenodd" clip-rule="evenodd" d="M198.885 70.4765C200.341 68.694 202.702 68.694 204.158 70.4765L239.951 114.295C241.407 116.077 241.407 118.967 239.951 120.75C238.495 122.532 236.134 122.532 234.678 120.75L201.521 80.1591L132.571 164.568C131.115 166.351 128.755 166.351 127.299 164.568L91.5054 120.75C90.0493 118.967 90.0493 116.077 91.5054 114.295C92.9614 112.512 95.3221 112.512 96.7782 114.295L129.935 154.886L198.885 70.4765Z"/>
<path fill-rule="evenodd" clip-rule="evenodd" d="M92.349 71.5093C93.3391 70.2972 94.9444 70.2972 95.9345 71.5093L129.935 113.133L163.935 71.5093C164.925 70.2972 166.531 70.2972 167.521 71.5093C168.511 72.7214 168.511 74.6867 167.521 75.8988L131.728 119.717C130.738 120.929 129.132 120.929 128.142 119.717L92.349 75.8988C91.3589 74.6867 91.3589 72.7214 92.349 71.5093Z"/>
<path fill-rule="evenodd" clip-rule="evenodd" d="M239.107 163.535C238.117 164.747 236.512 164.747 235.522 163.535L201.521 121.912L167.521 163.535C166.531 164.747 164.925 164.747 163.935 163.535C162.945 162.323 162.945 160.358 163.935 159.146L199.728 115.328C200.719 114.116 202.324 114.116 203.314 115.328L239.107 159.146C240.097 160.358 240.097 162.323 239.107 163.535Z"/>
<path d="M344.939 73.9392C355.83 73.9392 363.709 76.4358 368.576 81.4289C373.442 86.3058 375.876 93.2149 375.876 102.156C375.876 110.633 373.5 117.193 368.75 121.838C363.999 126.367 356.004 128.631 344.765 128.631H301.14V135.25C301.14 138.966 302.183 142.043 304.269 144.481C306.47 146.804 310.12 147.965 315.218 147.965H371.357V165.905H315.218C309.425 165.905 304.5 165.15 300.445 163.641C296.505 162.131 293.203 160.041 290.538 157.37C287.989 154.584 286.135 151.39 284.976 147.791C283.818 144.075 283.238 140.011 283.238 135.598V104.246C283.238 99.9497 283.818 95.9437 284.976 92.2279C286.135 88.5121 287.989 85.3188 290.538 82.6481C293.203 79.8612 296.505 77.7131 300.445 76.2035C304.5 74.694 309.425 73.9392 315.218 73.9392H344.939ZM301.14 114.174H344.243C349.226 114.174 352.702 113.187 354.672 111.213C356.757 109.239 357.8 106.569 357.8 103.201C357.8 99.7175 356.757 96.9307 354.672 94.8405C352.586 92.7504 349.284 91.7053 344.765 91.7053H315.218C310.12 91.7053 306.47 92.9246 304.269 95.3631C302.183 97.8016 301.14 100.821 301.14 104.42V114.174Z"/>
<path d="M405.462 74.4617L433.174 148.023C433.986 150.1 435.472 151.139 437.635 151.139C439.708 151.139 441.195 150.1 442.096 148.023L471.16 74.4617H488.869L456.696 155.745C454.984 160.08 452.55 163.15 449.396 164.957C446.332 166.673 442.412 167.531 437.635 167.531C433.129 167.531 429.209 166.718 425.875 165.092C422.63 163.376 420.152 160.26 418.44 155.745L387.889 74.4617H405.462Z"/>
<path d="M518.362 74.4617V165.905H502.411V74.4617H518.362Z"/>
<path d="M549.488 165.905H531.914L563.952 84.6221C565.664 80.287 568.052 77.2615 571.116 75.5455C574.271 73.7392 578.281 72.8361 583.147 72.8361C587.924 72.8361 591.844 73.7392 594.908 75.5455C598.062 77.2615 600.451 80.287 602.073 84.6221L632.894 165.905H615.185L587.473 92.344C586.662 90.2668 585.175 89.2281 583.012 89.2281C580.849 89.2281 579.317 90.2668 578.416 92.344L549.488 165.905Z"/>
</mask>
<path fill-rule="evenodd" clip-rule="evenodd" d="M198.885 70.4765C200.341 68.694 202.702 68.694 204.158 70.4765L239.951 114.295C241.407 116.077 241.407 118.967 239.951 120.75C238.495 122.532 236.134 122.532 234.678 120.75L201.521 80.1591L132.571 164.568C131.115 166.351 128.755 166.351 127.299 164.568L91.5054 120.75C90.0493 118.967 90.0493 116.077 91.5054 114.295C92.9614 112.512 95.3221 112.512 96.7782 114.295L129.935 154.886L198.885 70.4765Z" fill="#1C1C1C"/>
<path fill-rule="evenodd" clip-rule="evenodd" d="M92.349 71.5093C93.3391 70.2972 94.9444 70.2972 95.9345 71.5093L129.935 113.133L163.935 71.5093C164.925 70.2972 166.531 70.2972 167.521 71.5093C168.511 72.7214 168.511 74.6867 167.521 75.8988L131.728 119.717C130.738 120.929 129.132 120.929 128.142 119.717L92.349 75.8988C91.3589 74.6867 91.3589 72.7214 92.349 71.5093Z" fill="black"/>
<path fill-rule="evenodd" clip-rule="evenodd" d="M239.107 163.535C238.117 164.747 236.512 164.747 235.522 163.535L201.521 121.912L167.521 163.535C166.531 164.747 164.925 164.747 163.935 163.535C162.945 162.323 162.945 160.358 163.935 159.146L199.728 115.328C200.719 114.116 202.324 114.116 203.314 115.328L239.107 159.146C240.097 160.358 240.097 162.323 239.107 163.535Z" fill="black"/>
<path d="M344.939 73.9392C355.83 73.9392 363.709 76.4358 368.576 81.4289C373.442 86.3058 375.876 93.2149 375.876 102.156C375.876 110.633 373.5 117.193 368.75 121.838C363.999 126.367 356.004 128.631 344.765 128.631H301.14V135.25C301.14 138.966 302.183 142.043 304.269 144.481C306.47 146.804 310.12 147.965 315.218 147.965H371.357V165.905H315.218C309.425 165.905 304.5 165.15 300.445 163.641C296.505 162.131 293.203 160.041 290.538 157.37C287.989 154.584 286.135 151.39 284.976 147.791C283.818 144.075 283.238 140.011 283.238 135.598V104.246C283.238 99.9497 283.818 95.9437 284.976 92.2279C286.135 88.5121 287.989 85.3188 290.538 82.6481C293.203 79.8612 296.505 77.7131 300.445 76.2035C304.5 74.694 309.425 73.9392 315.218 73.9392H344.939ZM301.14 114.174H344.243C349.226 114.174 352.702 113.187 354.672 111.213C356.757 109.239 357.8 106.569 357.8 103.201C357.8 99.7175 356.757 96.9307 354.672 94.8405C352.586 92.7504 349.284 91.7053 344.765 91.7053H315.218C310.12 91.7053 306.47 92.9246 304.269 95.3631C302.183 97.8016 301.14 100.821 301.14 104.42V114.174Z" fill="#1C1C1C"/>
<path d="M405.462 74.4617L433.174 148.023C433.986 150.1 435.472 151.139 437.635 151.139C439.708 151.139 441.195 150.1 442.096 148.023L471.16 74.4617H488.869L456.696 155.745C454.984 160.08 452.55 163.15 449.396 164.957C446.332 166.673 442.412 167.531 437.635 167.531C433.129 167.531 429.209 166.718 425.875 165.092C422.63 163.376 420.152 160.26 418.44 155.745L387.889 74.4617H405.462Z" fill="#1C1C1C"/>
<path d="M518.362 74.4617V165.905H502.411V74.4617H518.362Z" fill="#1C1C1C"/>
<path d="M549.488 165.905H531.914L563.952 84.6221C565.664 80.287 568.052 77.2615 571.116 75.5455C574.271 73.7392 578.281 72.8361 583.147 72.8361C587.924 72.8361 591.844 73.7392 594.908 75.5455C598.062 77.2615 600.451 80.287 602.073 84.6221L632.894 165.905H615.185L587.473 92.344C586.662 90.2668 585.175 89.2281 583.012 89.2281C580.849 89.2281 579.317 90.2668 578.416 92.344L549.488 165.905Z" fill="#1C1C1C"/>
<path d="M204.158 70.4765L204.545 70.1602V70.1602L204.158 70.4765ZM198.885 70.4765L198.498 70.1602V70.1602L198.885 70.4765ZM239.951 114.295L239.564 114.611V114.611L239.951 114.295ZM239.951 120.75L240.338 121.066L239.951 120.75ZM234.678 120.75L234.291 121.066L234.678 120.75ZM201.521 80.1591L201.908 79.8428C201.813 79.7265 201.671 79.6591 201.521 79.6591C201.371 79.6591 201.229 79.7265 201.134 79.8428L201.521 80.1591ZM132.571 164.568L132.959 164.884L132.571 164.568ZM127.299 164.568L126.911 164.884L127.299 164.568ZM91.5054 120.75L91.1181 121.066L91.5054 120.75ZM96.7782 114.295L96.391 114.611L96.7782 114.295ZM129.935 154.886L129.548 155.202C129.643 155.318 129.785 155.386 129.935 155.386C130.085 155.386 130.227 155.318 130.322 155.202L129.935 154.886ZM95.9345 71.5093L95.5473 71.8256V71.8257L95.9345 71.5093ZM92.349 71.5093L92.7363 71.8257V71.8256L92.349 71.5093ZM129.935 113.133L129.548 113.449C129.643 113.565 129.785 113.633 129.935 113.633C130.085 113.633 130.227 113.565 130.322 113.449L129.935 113.133ZM163.935 71.5093L163.548 71.193L163.935 71.5093ZM167.521 71.5093L167.134 71.8257L167.521 71.5093ZM167.521 75.8988L167.134 75.5825L167.521 75.8988ZM131.728 119.717L132.115 120.033L131.728 119.717ZM128.142 119.717L128.529 119.401L128.142 119.717ZM92.349 75.8988L92.7363 75.5825L92.349 75.8988ZM235.522 163.535L235.909 163.219L235.522 163.535ZM239.107 163.535L238.72 163.219L239.107 163.535ZM201.521 121.912L201.908 121.595C201.813 121.479 201.671 121.412 201.521 121.412C201.371 121.412 201.229 121.479 201.134 121.595L201.521 121.912ZM167.521 163.535L167.908 163.852L167.521 163.535ZM163.935 163.535L164.323 163.219L163.935 163.535ZM163.935 159.146L164.323 159.462L163.935 159.146ZM199.728 115.328L199.341 115.011L199.728 115.328ZM203.314 115.328L202.927 115.644L203.314 115.328ZM239.107 159.146L239.494 158.83L239.107 159.146ZM368.576 81.4289L368.218 81.7779L368.222 81.782L368.576 81.4289ZM368.75 121.838L369.095 122.2L369.099 122.196L368.75 121.838ZM301.14 128.631V128.131H300.64V128.631H301.14ZM304.269 144.481L303.889 144.806L303.897 144.816L303.906 144.825L304.269 144.481ZM371.357 147.965H371.857V147.465H371.357V147.965ZM371.357 165.905V166.405H371.857V165.905H371.357ZM300.445 163.641L300.266 164.108L300.27 164.109L300.445 163.641ZM290.538 157.37L290.169 157.708L290.176 157.716L290.184 157.724L290.538 157.37ZM284.976 147.791L284.499 147.939L284.5 147.944L284.976 147.791ZM284.976 92.2279L285.454 92.3767L284.976 92.2279ZM290.538 82.6481L290.177 82.3025L290.176 82.3029L290.538 82.6481ZM300.445 76.2035L300.27 75.7349L300.266 75.7366L300.445 76.2035ZM301.14 114.174H300.64V114.674H301.14V114.174ZM354.672 111.213L354.328 110.85L354.323 110.855L354.318 110.86L354.672 111.213ZM354.672 94.8405L354.318 95.1937L354.672 94.8405ZM304.269 95.3631L303.897 95.0279L303.889 95.0381L304.269 95.3631ZM405.462 74.4617L405.93 74.2855L405.808 73.9617H405.462V74.4617ZM433.174 148.023L432.707 148.199L432.709 148.205L433.174 148.023ZM442.096 148.023L442.555 148.222L442.558 148.214L442.561 148.207L442.096 148.023ZM471.16 74.4617V73.9617H470.82L470.695 74.278L471.16 74.4617ZM488.869 74.4617L489.334 74.6458L489.604 73.9617H488.869V74.4617ZM456.696 155.745L456.231 155.561L456.231 155.561L456.696 155.745ZM449.396 164.957L449.64 165.393L449.645 165.391L449.396 164.957ZM425.875 165.092L425.641 165.534L425.648 165.538L425.656 165.542L425.875 165.092ZM418.44 155.745L417.972 155.921L417.972 155.922L418.44 155.745ZM387.889 74.4617V73.9617H387.167L387.421 74.6377L387.889 74.4617ZM518.362 74.4617H518.862V73.9617H518.362V74.4617ZM518.362 165.905V166.405H518.862V165.905H518.362ZM502.411 165.905H501.911V166.405H502.411V165.905ZM502.411 74.4617V73.9617H501.911V74.4617H502.411ZM549.488 165.905V166.405H549.828L549.953 166.088L549.488 165.905ZM531.914 165.905L531.449 165.722L531.18 166.405H531.914V165.905ZM563.952 84.6221L563.487 84.4384L563.487 84.4388L563.952 84.6221ZM571.116 75.5455L571.361 75.9818L571.365 75.9794L571.116 75.5455ZM594.908 75.5455L594.654 75.9762L594.662 75.9806L594.669 75.9847L594.908 75.5455ZM602.073 84.6221L601.604 84.7973L601.605 84.7994L602.073 84.6221ZM632.894 165.905V166.405H633.618L633.361 165.728L632.894 165.905ZM615.185 165.905L614.717 166.081L614.839 166.405H615.185V165.905ZM587.473 92.344L587.941 92.1677L587.939 92.1621L587.473 92.344ZM578.416 92.344L577.957 92.145L577.954 92.1529L577.951 92.161L578.416 92.344ZM204.545 70.1602C203.73 69.1631 202.638 68.6396 201.521 68.6396C200.404 68.6396 199.312 69.1631 198.498 70.1602L199.272 70.7928C199.914 70.0074 200.73 69.6396 201.521 69.6396C202.312 69.6396 203.129 70.0074 203.77 70.7928L204.545 70.1602ZM240.338 113.979L204.545 70.1602L203.77 70.7928L239.564 114.611L240.338 113.979ZM240.338 121.066C241.944 119.1 241.944 115.945 240.338 113.979L239.564 114.611C240.869 116.21 240.869 118.835 239.564 120.434L240.338 121.066ZM234.291 121.066C235.105 122.063 236.197 122.587 237.314 122.587C238.432 122.587 239.523 122.063 240.338 121.066L239.564 120.434C238.922 121.219 238.105 121.587 237.314 121.587C236.523 121.587 235.707 121.219 235.065 120.434L234.291 121.066ZM201.134 80.4754L234.291 121.066L235.065 120.434L201.908 79.8428L201.134 80.4754ZM126.911 164.884C127.726 165.882 128.818 166.405 129.935 166.405C131.052 166.405 132.144 165.882 132.959 164.884L132.184 164.252C131.543 165.037 130.726 165.405 129.935 165.405C129.144 165.405 128.327 165.037 127.686 164.252L126.911 164.884ZM91.1181 121.066L126.911 164.884L127.686 164.252L91.8926 120.434L91.1181 121.066ZM91.1181 113.979C89.5117 115.945 89.5117 119.1 91.1181 121.066L91.8926 120.434C90.5869 118.835 90.5869 116.21 91.8926 114.611L91.1181 113.979ZM97.1654 113.979C96.3509 112.981 95.259 112.458 94.1418 112.458C93.0246 112.458 91.9326 112.981 91.1181 113.979L91.8926 114.611C92.5342 113.826 93.3506 113.458 94.1418 113.458C94.9329 113.458 95.7494 113.826 96.391 114.611L97.1654 113.979ZM130.322 154.569L97.1654 113.979L96.391 114.611L129.548 155.202L130.322 154.569ZM132.959 164.884L201.908 80.4754L201.134 79.8428L132.184 164.252L132.959 164.884ZM198.498 70.1602L129.548 154.569L130.322 155.202L199.272 70.7928L198.498 70.1602ZM96.3218 71.193C95.7403 70.4811 94.9537 70.1003 94.1418 70.1003C93.3299 70.1003 92.5433 70.4811 91.9618 71.193L92.7363 71.8256C93.1448 71.3254 93.656 71.1003 94.1418 71.1003C94.6276 71.1003 95.1387 71.3254 95.5473 71.8256L96.3218 71.193ZM163.548 71.193L129.548 112.817L130.322 113.449L164.323 71.8257L163.548 71.193ZM167.908 71.193C167.327 70.4811 166.54 70.1003 165.728 70.1003C164.916 70.1003 164.13 70.4811 163.548 71.193L164.323 71.8257C164.731 71.3254 165.242 71.1003 165.728 71.1003C166.214 71.1003 166.725 71.3254 167.134 71.8257L167.908 71.193ZM167.908 76.2151C169.049 74.8189 169.049 72.5892 167.908 71.193L167.134 71.8257C167.973 72.8537 167.973 74.5544 167.134 75.5825L167.908 76.2151ZM132.115 120.033L167.908 76.2151L167.134 75.5825L131.34 119.401L132.115 120.033ZM127.755 120.033C128.336 120.745 129.123 121.126 129.935 121.126C130.747 121.126 131.533 120.745 132.115 120.033L131.34 119.401C130.932 119.901 130.421 120.126 129.935 120.126C129.449 120.126 128.938 119.901 128.529 119.401L127.755 120.033ZM91.9618 71.193C90.8213 72.5892 90.8213 74.8189 91.9618 76.2151L92.7363 75.5825C91.8965 74.5544 91.8965 72.8537 92.7363 71.8257L91.9618 71.193ZM130.322 112.817L96.3218 71.193L95.5473 71.8257L129.548 113.449L130.322 112.817ZM91.9618 76.2151L127.755 120.033L128.529 119.401L92.7363 75.5825L91.9618 76.2151ZM235.134 163.852C235.716 164.564 236.502 164.944 237.314 164.944C238.126 164.944 238.913 164.564 239.494 163.852L238.72 163.219C238.311 163.719 237.8 163.944 237.314 163.944C236.829 163.944 236.317 163.719 235.909 163.219L235.134 163.852ZM201.134 122.228L235.134 163.852L235.909 163.219L201.908 121.595L201.134 122.228ZM167.908 163.852L201.908 122.228L201.134 121.595L167.134 163.219L167.908 163.852ZM163.548 163.852C164.13 164.564 164.916 164.944 165.728 164.944C166.54 164.944 167.327 164.564 167.908 163.852L167.134 163.219C166.725 163.719 166.214 163.944 165.728 163.944C165.242 163.944 164.731 163.719 164.323 163.219L163.548 163.852ZM163.548 158.83C162.408 160.226 162.408 162.455 163.548 163.852L164.323 163.219C163.483 162.191 163.483 160.49 164.323 159.462L163.548 158.83ZM199.341 115.011L163.548 158.83L164.323 159.462L200.116 115.644L199.341 115.011ZM203.701 115.011C203.12 114.299 202.333 113.919 201.521 113.919C200.709 113.919 199.923 114.299 199.341 115.011L200.116 115.644C200.524 115.144 201.035 114.919 201.521 114.919C202.007 114.919 202.518 115.144 202.927 115.644L203.701 115.011ZM239.494 158.83L203.701 115.011L202.927 115.644L238.72 159.462L239.494 158.83ZM239.494 163.852C240.635 162.455 240.635 160.226 239.494 158.83L238.72 159.462C239.56 160.49 239.56 162.191 238.72 163.219L239.494 163.852ZM344.939 74.4392C355.769 74.4392 363.487 76.9238 368.218 81.7778L368.934 81.0799C363.932 75.9477 355.891 73.4392 344.939 73.4392V74.4392ZM368.222 81.782C372.969 86.5397 375.376 93.3062 375.376 102.156H376.376C376.376 93.1236 373.915 86.072 368.93 81.0757L368.222 81.782ZM375.376 102.156C375.376 110.537 373.03 116.954 368.4 121.481L369.099 122.196C373.971 117.433 376.376 110.728 376.376 102.156H375.376ZM368.405 121.476C363.794 125.871 355.96 128.131 344.765 128.131V129.131C356.048 129.131 364.204 126.862 369.095 122.2L368.405 121.476ZM344.765 128.131H301.14V129.131H344.765V128.131ZM300.64 128.631V135.25H301.64V128.631H300.64ZM300.64 135.25C300.64 139.065 301.713 142.263 303.889 144.806L304.649 144.156C302.652 141.822 301.64 138.866 301.64 135.25H300.64ZM303.906 144.825C306.245 147.293 310.062 148.465 315.218 148.465V147.465C310.178 147.465 306.695 146.314 304.631 144.137L303.906 144.825ZM315.218 148.465H371.357V147.465H315.218V148.465ZM370.857 147.965V165.905H371.857V147.965H370.857ZM371.357 165.405H315.218V166.405H371.357V165.405ZM315.218 165.405C309.465 165.405 304.604 164.655 300.619 163.172L300.27 164.109C304.397 165.645 309.384 166.405 315.218 166.405V165.405ZM300.624 163.174C296.742 161.686 293.502 159.633 290.892 157.017L290.184 157.724C292.904 160.45 296.269 162.576 300.266 164.108L300.624 163.174ZM290.907 157.033C288.406 154.299 286.589 151.169 285.452 147.637L284.5 147.944C285.681 151.612 287.571 154.868 290.169 157.708L290.907 157.033ZM285.454 147.642C284.312 143.98 283.738 139.967 283.738 135.598H282.738C282.738 140.054 283.324 144.169 284.499 147.939L285.454 147.642ZM283.738 135.598V104.246H282.738V135.598H283.738ZM283.738 104.246C283.738 99.995 284.312 96.0396 285.454 92.3767L284.499 92.079C283.324 95.8477 282.738 99.9045 282.738 104.246H283.738ZM285.454 92.3767C286.591 88.7303 288.407 85.6053 290.9 82.9933L290.176 82.3029C287.571 85.0323 285.679 88.2938 284.499 92.079L285.454 92.3767ZM290.899 82.9937C293.509 80.2651 296.747 78.156 300.624 76.6704L300.266 75.7366C296.264 77.2701 292.897 79.4574 290.177 82.3025L290.899 82.9937ZM300.619 76.6721C304.604 75.1891 309.465 74.4392 315.218 74.4392V73.4392C309.384 73.4392 304.397 74.1989 300.27 75.7349L300.619 76.6721ZM315.218 74.4392H344.939V73.4392H315.218V74.4392ZM301.14 114.674H344.243V113.674H301.14V114.674ZM344.243 114.674C349.263 114.674 352.911 113.685 355.025 111.566L354.318 110.86C352.493 112.689 349.189 113.674 344.243 113.674V114.674ZM355.015 111.576C357.218 109.492 358.3 106.68 358.3 103.201H357.3C357.3 106.457 356.296 108.987 354.328 110.85L355.015 111.576ZM358.3 103.201C358.3 99.6107 357.221 96.6879 355.025 94.4874L354.318 95.1937C356.293 97.1734 357.3 99.8243 357.3 103.201H358.3ZM355.025 94.4874C352.806 92.2636 349.347 91.2053 344.765 91.2053V92.2053C349.22 92.2053 352.365 93.2372 354.318 95.1937L355.025 94.4874ZM344.765 91.2053H315.218V92.2053H344.765V91.2053ZM315.218 91.2053C310.056 91.2053 306.235 92.4383 303.897 95.028L304.64 95.6981C306.705 93.4109 310.184 92.2053 315.218 92.2053V91.2053ZM303.889 95.0381C301.716 97.5783 300.64 100.717 300.64 104.42H301.64C301.64 100.924 302.65 98.0249 304.649 95.6881L303.889 95.0381ZM300.64 104.42V114.174H301.64V104.42H300.64ZM404.995 74.638L432.707 148.199L433.642 147.847L405.93 74.2855L404.995 74.638ZM432.709 148.205C433.142 149.314 433.77 150.182 434.612 150.77C435.454 151.358 436.472 151.639 437.635 151.639V150.639C436.636 150.639 435.829 150.4 435.184 149.95C434.539 149.499 434.018 148.809 433.64 147.841L432.709 148.205ZM437.635 151.639C438.759 151.639 439.752 151.356 440.591 150.77C441.428 150.186 442.077 149.324 442.555 148.222L441.638 147.824C441.215 148.798 440.67 149.495 440.019 149.95C439.371 150.402 438.584 150.639 437.635 150.639V151.639ZM442.561 148.207L471.625 74.6455L470.695 74.278L441.631 147.839L442.561 148.207ZM471.16 74.9617H488.869V73.9617H471.16V74.9617ZM488.404 74.2777L456.231 155.561L457.161 155.929L489.334 74.6458L488.404 74.2777ZM456.231 155.561C454.548 159.821 452.178 162.787 449.148 164.523L449.645 165.391C452.922 163.514 455.419 160.339 457.161 155.928L456.231 155.561ZM449.152 164.521C446.184 166.182 442.356 167.031 437.635 167.031V168.031C442.468 168.031 446.48 167.163 449.64 165.393L449.152 164.521ZM437.635 167.031C433.189 167.031 429.347 166.229 426.094 164.643L425.656 165.542C429.071 167.207 433.069 168.031 437.635 168.031V167.031ZM426.108 164.65C423.002 163.007 420.59 160.006 418.907 155.567L417.972 155.922C419.714 160.515 422.259 163.745 425.641 165.534L426.108 164.65ZM418.908 155.569L388.357 74.2858L387.421 74.6377L417.972 155.921L418.908 155.569ZM387.889 74.9617H405.462V73.9617H387.889V74.9617ZM517.862 74.4617V165.905H518.862V74.4617H517.862ZM518.362 165.405H502.411V166.405H518.362V165.405ZM502.911 165.905V74.4617H501.911V165.905H502.911ZM502.411 74.9617H518.362V73.9617H502.411V74.9617ZM549.488 165.405H531.914V166.405H549.488V165.405ZM532.379 166.088L564.417 84.8055L563.487 84.4388L531.449 165.722L532.379 166.088ZM564.417 84.8058C566.101 80.5426 568.426 77.6254 571.361 75.9818L570.872 75.1093C567.679 76.8976 565.228 80.0315 563.487 84.4384L564.417 84.8058ZM571.365 75.9794C574.422 74.2287 578.34 73.3361 583.147 73.3361V72.3361C578.222 72.3361 574.119 73.2498 570.868 75.1116L571.365 75.9794ZM583.147 73.3361C587.864 73.3361 591.689 74.2283 594.654 75.9762L595.162 75.1148C591.999 73.2502 587.984 72.3361 583.147 72.3361V73.3361ZM594.669 75.9847C597.69 77.6282 600.012 80.5416 601.604 84.7973L602.541 84.4469C600.889 80.0324 598.435 76.8948 595.147 75.1063L594.669 75.9847ZM601.605 84.7994L632.426 166.082L633.361 165.728L602.54 84.4448L601.605 84.7994ZM632.894 165.405H615.185V166.405H632.894V165.405ZM615.653 165.729L587.941 92.1677L587.005 92.5203L614.717 166.081L615.653 165.729ZM587.939 92.1621C587.506 91.0527 586.877 90.1849 586.036 89.5972C585.193 89.0087 584.176 88.7281 583.012 88.7281V89.7281C584.011 89.7281 584.819 89.9669 585.463 90.417C586.109 90.8679 586.63 91.558 587.008 92.5258L587.939 92.1621ZM583.012 88.7281C581.848 88.7281 580.823 89.0088 579.961 89.5932C579.1 90.1766 578.437 91.0388 577.957 92.145L578.875 92.543C579.296 91.5719 579.85 90.8762 580.522 90.421C581.192 89.9668 582.014 89.7281 583.012 89.7281V88.7281ZM577.951 92.161L549.022 165.722L549.953 166.088L578.881 92.527L577.951 92.161Z" fill="black" mask="url(#path-2-inside-1_8322_7951)"/>
</svg>
